PathFileType	4	(X/Y/Z)	AB05\squats_2.trc
DataRate	CameraRate	NumFrames	NumMarkers	Units	OrigDataRate	OrigDataStartFrame	OrigNumFrames
200.000000	200.000000	4	35	mm	200.000000	168	336
Frame#	Time	C7			LSHO			STRN			LASI			RASI			LPSI			RPSI			LGTR			RGTR			LTHC			LTHL			LTHR			LKNE			LMKNE			LSHC			LSHL			LSHR			LANK			LMANK			LMT1			LMT5			LCAL			RTHC			RTHL			RTHR			RKNE			RMKNE			RSHC			RSHL			RSHR			RANK			RMANK			RMT1			RMT5			RCAL			
		X1	Y1	Z1	X2	Y2	Z2	X3	Y3	Z3	X4	Y4	Z4	X5	Y5	Z5	X6	Y6	Z6	X7	Y7	Z7	X8	Y8	Z8	X9	Y9	Z9	X10	Y10	Z10	X11	Y11	Z11	X12	Y12	Z12	X13	Y13	Z13	X14	Y14	Z14	X15	Y15	Z15	X16	Y16	Z16	X17	Y17	Z17	X18	Y18	Z18	X19	Y19	Z19	X20	Y20	Z20	X21	Y21	Z21	X22	Y22	Z22	X23	Y23	Z23	X24	Y24	Z24	X25	Y25	Z25	X26	Y26	Z26	X27	Y27	Z27	X28	Y28	Z28	X29	Y29	Z29	X30	Y30	Z30	X31	Y31	Z31	X32	Y32	Z32	X33	Y33	Z33	X34	Y34	Z34	X35	Y35	Z35	

169	1.75	-2156.572345051379	1011.56450073939	2508.7101062731	-2075.825288090582	926.309593333552	2388.681911880902	-2104.701499719577	853.3322820420328	2510.806861513768	-2481.528315863806	665.7065445114429	2379.424428887662	-2460.688810723318	648.7116495957972	2637.67892483612	-2618.586149753578	754.3117103861515	2458.619763443091	-2590.447909174026	758.8746968843886	2575.134294241846	-2544.445508343294	642.9551234646962	2297.047903955347	-2564.177563042425	632.93911200686	2711.718999773987	-2406.710078104544	660.270918802458	2371.925057219709	-2506.240062669614	501.9821216078952	2337.597273527789	-2445.925221528626	620.5826861042086	2300.430072431312	-2203.410901780504	490.0088788504275	2270.155290533723	-2182.790785170521	484.6379709212962	2396.387056327203	-2300.560880992166	385.0620323108583	2280.082712872381	-2235.140649270237	237.0195743965859	2312.720896658773	-2222.351069605777	319.5470137040425	2383.092833149841	-2354.518574252222	110.0889266914121	2291.996067589377	-2323.271102813489	108.7815436364299	2385.36589268479	-2199.073320049293	64.41514756686168	2350.155007115642	-2249.408545205695	54.84984360351577	2235.487551754778	-2418.390922629753	73.54137277983507	2349.606069309536	-2482.712250446133	486.205143031553	2679.295273141536	-2431.396387592897	605.2007704171901	2728.239458517649	-2389.841903771485	642.7536045164391	2639.864674438826	-2207.572305276934	478.2079359135219	2750.985245980359	-2164.680365123099	485.2431230605401	2623.906593529838	-2234.168913509795	247.3654663715134	2706.647103617454	-2270.717500940257	396.3714650407875	2748.930388497834	-2206.721391881272	351.0447320146055	2636.839433186671	-2361.264349572892	104.4846007889896	2708.478998210575	-2322.941220667522	107.9552440546392	2618.688905943049	-2209.207725410345	63.82499250563797	2654.299640957634	-2245.100198285236	61.47827332270217	2761.303288663341	-2428.16369301595	74.4905135127445	2654.35070830656	
170	1.755	-2156.764824492798	1011.712025208008	2508.854909759164	-2076.077116455756	926.4389973035366	2388.781173704217	-2104.921650648088	853.434622335093	2510.914929351766	-2481.670467454248	665.7909684454839	2379.57309249169	-2460.902225170325	648.7873895264773	2637.796143523347	-2618.735343492415	754.3974788414948	2458.751992930272	-2590.624875757493	758.9389965584909	2575.271518507515	-2544.564350056979	643.0522584359594	2297.179808128789	-2564.399469159051	632.9942940530108	2711.855519022826	-2406.87837974621	660.313347686661	2372.128413859361	-2506.397279887219	502.083422754145	2337.735529519928	-2446.055237218199	620.6770532503929	2300.582001981206	-2203.557636214911	490.0752943461474	2270.396994431391	-2182.934616514785	484.6656490936417	2396.612337551094	-2300.701210292663	385.1148412086967	2280.325681535967	-2235.216686719777	237.0541137584378	2312.846722875093	-2222.4092351151	319.5294520581592	2383.24842682601	-2354.538544269608	110.0960214224293	2292.052150943784	-2323.241719733106	108.7414817769235	2385.407485318883	-2199.079842697985	64.41427305289835	2350.142407968267	-2249.437319520548	54.85888708662016	2235.481544912999	-2418.376406339428	73.52871987800118	2349.657058656705	-2482.940871929104	486.25085922286	2679.414746870465	-2431.648352395945	605.2320016506466	2728.377969489519	-2390.062568988684	642.8341477751071	2640.063660657459	-2207.818214650137	478.2396373980085	2751.153208409859	-2164.877744292507	485.31600050118	2624.124471715787	-2234.285153317817	247.403627878906	2706.746825892147	-2270.915639932383	396.3646928247215	2749.056738081275	-2206.881328658118	351.1007564696202	2636.990693173904	-2361.297723401264	104.4396848618167	2708.487975311482	-2322.958770611091	107.9557877239257	2618.71023679134	-2209.231031367816	63.81583104743527	2654.340353296674	-2245.10924967296	61.49218171553369	2761.345004806707	-2428.162942183921	74.46883571478499	2654.336871801708	
171	1.76	-2156.963249704784	1011.893437176652	2509.00423527095	-2076.335146374391	926.604801069643	2388.87867432891	-2105.146291181542	853.57339241133	2511.026898352196	-2481.80320484204	665.8928938326287	2379.718081410303	-2461.111667033747	648.8758925102645	2637.91292251681	-2618.876645433837	754.5027441188971	2458.883907083047	-2590.794850247687	759.0187027658403	2575.409660675825	-2544.678661799873	643.1718520457139	2297.310540901181	-2564.618356345348	633.0637003046376	2711.991296715416	-2407.039032960509	660.3698441713566	2372.317216406512	-2506.556440030051	502.2020128296168	2337.863775383955	-2446.183568764468	620.7878143732208	2300.724780357295	-2203.709758417827	490.1442658216453	2270.613736792167	-2183.082213419669	484.6965233428515	2396.811630758908	-2300.845880295543	385.1660981339958	2280.54326400849	-2235.29558643265	237.090173769648	2312.958742425867	-2222.471169063839	319.5169936535646	2383.386812124559	-2354.559049702174	110.1018087288946	2292.103416396139	-2323.213934997916	108.7047400091072	2385.444832178064	-2199.086117153253	64.41417616213005	2350.126488308436	-2249.466944424992	54.8664695804669	2235.472242565262	-2418.363156612475	73.5169235133006	2349.705276119277	-2483.173063235614	486.3092679508744	2679.536289947568	-2431.903185398475	605.2749355385358	2728.521122698641	-2390.27786518769	642.9259737529565	2640.273209480359	-2208.068706620984	478.2720825594592	2751.340006614703	-2165.074665153297	485.3913437295117	2624.364192281161	-2234.407305045039	247.4438394685048	2706.858943273389	-2271.120520854566	396.3571989279724	2749.199634169785	-2207.041589639926	351.1605286423455	2637.156361682966	-2361.332139930392	104.3935414936471	2708.498462733798	-2322.977431701415	107.9569056771881	2618.735651427364	-2209.2552079705	63.8067151433772	2654.385332975182	-2245.11961679361	61.50568632605569	2761.392515602897	-2428.161783512901	74.44864190761076	2654.323682373717	
172	1.765	-2157.167546946598	1012.10813758493	2509.158431719189	-2076.599192672884	926.807004043588	2388.974752183282	-2105.374854265575	853.7483986983275	2511.142432628147	-2481.92703467265	666.0126877153667	2379.859481066793	-2461.317362645714	648.9778174093984	2638.029466693895	-2619.010344982198	754.6279815100987	2459.015704547895	-2590.958055980361	759.1143454004068	2575.54896535024	-2544.789138666443	643.3143301901576	2297.439940995391	-2564.834047125523	633.1476047395639	2712.126227510156	-2407.192377391103	660.4406822812865	2372.491490159868	-2506.718026139882	502.3381473995013	2337.982205460873	-2446.31067040091	620.9151049539757	2300.858401817192	-2203.867650719056	490.2157968561817	2270.805795379642	-2183.23442804054	484.7307918022472	2396.985367598216	-2300.994768004761	385.2155798014309	2280.735176847088	-2235.377329810563	237.1278191891441	2313.056780278169	-2222.537627174609	319.5099480740539	2383.508093620648	-2354.580146608735	110.1061286853056	2292.14955095659	-2323.188286884605	108.6715820150497	2385.477715850719	-2199.092173924082	64.41500182573232	2350.107346435786	-2249.497208398854	54.87260162524658	2235.459769165423	-2418.351480534682	73.5059224292707	2349.750106004568	-2483.408211852895	486.3807228817462	2679.658760389431	-2432.159976779053	605.3299447483942	2728.66788680205	-2390.487663486623	643.0299705315564	2640.491532973164	-2208.323075371422	478.3059076102849	2751.542756780253	-2165.271337617355	485.4694783141488	2624.62153080399	-2234.534875276979	247.4861348356247	2706.98179290712	-2271.331396630794	396.3495081061697	2749.356629371464	-2207.201518898588	351.2239312852957	2637.333711954496	-2361.36744212296	104.3464554485774	2708.510286106506	-2322.997020284191	107.9585564264516	2618.76486380238	-2209.279869676153	63.79799881606028	2654.434071860775	-2245.131319764497	61.51861211535826	2761.445286759977	-2428.160331646189	74.42988552346449	2654.311371472354	
